/* XPM */
static char *_55da7017fb249b9b2153d71117b4ac0X337PdfGfd7ZGoeS[] = {
/* columns rows colors chars-per-pixel */
"80 80 165 2 ",
"   c None",
".  c black",
"X  c #010101",
"o  c #020202",
"O  c gray1",
"+  c #040404",
"@  c gray2",
"#  c #060606",
"$  c #070707",
"%  c gray3",
"&  c #090909",
"*  c gray4",
"=  c gray5",
"-  c #0E0E0E",
";  c gray6",
":  c #101010",
">  c #111111",
",  c #131313",
"<  c gray8",
"1  c #151515",
"2  c #161616",
"3  c gray9",
"4  c #181818",
"5  c #1B1B1B",
"6  c gray11",
"7  c #1D1D1D",
"8  c #1E1E1E",
"9  c gray12",
"0  c gray14",
"q  c #252525",
"w  c gray15",
"e  c #282828",
"r  c gray17",
"t  c #2C2C2C",
"y  c #2D2D2D",
"u  c gray18",
"i  c #2F2F2F",
"p  c gray19",
"a  c #313131",
"s  c #343434",
"d  c #373737",
"f  c #3C3C3C",
"g  c gray25",
"h  c #434343",
"j  c #464646",
"k  c gray28",
"l  c #494949",
"z  c gray29",
"x  c #4B4B4B",
"c  c #4C4C4C",
"v  c gray30",
"b  c gray31",
"n  c #505050",
"m  c #515151",
"M  c #535353",
"N  c #555555",
"B  c #565656",
"V  c gray34",
"C  c gray36",
"Z  c #5D5D5D",
"A  c #626262",
"S  c gray39",
"D  c #656565",
"F  c #686868",
"G  c #6A6A6A",
"H  c gray42",
"J  c #6D6D6D",
"K  c #6F6F6F",
"L  c #767676",
"P  c #777777",
"I  c #797979",
"U  c gray48",
"Y  c #7C7C7C",
"T  c gray49",
"R  c gray50",
"E  c #808080",
"W  c gray51",
"Q  c #838383",
"!  c #848484",
"~  c #868686",
"^  c gray53",
"/  c #888888",
"(  c #8B8B8B",
")  c gray55",
"_  c #8D8D8D",
"`  c #909090",
"'  c #929292",
"]  c #939393",
"[  c gray58",
"{  c #959595",
"}  c gray59",
"|  c gray61",
" . c #9D9D9D",
".. c gray62",
"X. c #9F9F9F",
"o. c #A0A0A0",
"O. c #A2A2A2",
"+. c gray64",
"@. c gray66",
"#. c #A9A9A9",
"$. c #AEAEAE",
"%. c #AFAFAF",
"&. c gray69",
"*. c #B2B2B2",
"=. c gray70",
"-. c #B6B6B6",
";. c gray72",
":. c #B9B9B9",
">. c gray73",
",. c #BBBBBB",
"<. c #BCBCBC",
"1. c gray74",
"2. c gray",
"3. c gray75",
"4. c #C0C0C0",
"5. c #C1C1C1",
"6. c gray76",
"7. c #C3C3C3",
"8. c gray77",
"9. c #C5C5C5",
"0. c #C6C6C6",
"q. c gray78",
"w. c #C8C8C8",
"e. c gray79",
"r. c #CACACA",
"t. c #CBCBCB",
"y. c gray80",
"u. c #CDCDCD",
"i. c gray81",
"p. c #D0D0D0",
"a. c gray82",
"s. c #D2D2D2",
"d. c LightGray",
"f. c gray83",
"g. c #D5D5D5",
"h. c gray84",
"j. c #D7D7D7",
"k. c #D8D8D8",
"l. c gray85",
"z. c gray86",
"x. c gray87",
"c. c gray88",
"v. c #E1E1E1",
"b. c #E2E2E2",
"n. c gray89",
"m. c #E4E4E4",
"M. c gray90",
"N. c #E6E6E6",
"B. c #E7E7E7",
"V. c gray91",
"C. c #E9E9E9",
"Z. c #EAEAEA",
"A. c gray92",
"S. c #ECECEC",
"D. c #EEEEEE",
"F. c #F1F1F1",
"G. c #F4F4F4",
"H. c #F6F6F6",
"J. c gray97",
"K. c gray98",
"L. c #FBFBFB",
"P. c gray99",
"I. c #FDFDFD",
"U. c #FEFEFE",
"Y. c white",
/* pixels */
"                                                                                                                                                                ",
"                                                                                                                Y.Y.Y.Y.Y.Y.                                    ",
"                                                                                                                :.<.<.<.<.:.f.                                  ",
"                                                                                                            Y.=.. . . . . . I Y.                                ",
"                                    Y.Y.Y.                                                                Y.D < . . . . . . ; d Y.                              ",
"                                  =._ ` _ :.                                                              Y.m . . . . . . . . < Y.                              ",
"                                Y.C . . . J Y.                                                            Y.m . . . . . . . . < Y.                              ",
"                              Y.; . . . . . 4 Y.                                                          Y.m . . . . . . . . < Y.                              ",
"                              Y.. . . . . . , Y.                                                          Y.m . . . . . . . . < Y.                              ",
"                              Y.. . . . . . , Y.                                                          Y.m . . . . . . . . < Y.                              ",
"                              Y.. . . . . . , Y.                                          Y.Y.Y.Y.        Y.m . . . . . . . . < Y.                              ",
"                              Y.+ . . . . . , Y.          Y.                            s.r 0 0 j Y.      Y.m . . . . . . . . < Y.                              ",
"                              Y.. . . . . . , Y.        6.:.                          r.G . . . * O.B.    Y.m . . . . . . . . 4 Y.                              ",
"                              Y.. . . . . . , Y.      Y.l g L.                      Y.m . . . . . . -.Y.  Y.m . . . . . . . . < Y.                              ",
"                              Y.. . . . . . , Y.    B.r + + 0 Z.                    Y.V . . . . . . -.Y.  Y.m . . . . . . . . < Y.                              ",
"                              Y.. . . . . . , Y.    b.* . . . Z.                    Y.V . . . . . . -.Y.  Y.m . . . . . . . . < Y.                              ",
"                              Y.. . . . . . , Y.    b.* . . . Z.                    Y.V . . . . . . -.Y.  Y.m . . . . . . . . < Y.                              ",
"                              Y.. . . . . . , Y.    b.* . . . Z.                    Y.V . . . . . . -.Y.  Y.m . . . . . . . . < Y.        Y.Y.Y.Y.              ",
"                              Y.. . . . . . , Y.    b.* . . . Z.                    Y.V . . . . . . -.Y.  Y.m . . . . . . . . < Y.      Y.R l l l $.            ",
"                              Y.. . . . . . , Y.    b.* . . . Z.                    Y.V . . . . . . -.Y.  Y.m . . . . . . . . < Y.      <.t . . . A 9.          ",
"            Y.                Y.. . . . . . , Y.    b.* . . . Z.                    Y.V . . . . . . -.Y.  Y.m . . . . . . . . 4 Y.    x.+ . . . . . t Y.        ",
"            Y.                Y.. . . . . . , Y.    b.* . . . Z.                    Y.V . . . . . . -.Y.  Y.m . . . . . . . . < Y.    b.+ . . . . . p Y.        ",
"            Y.                Y.. . . . . . , Y.    b.* . . . Z.                    Y.V . . . . . . -.Y.  Y.m . . . . . . . . < Y.    b.+ . . . . . p Y.        ",
"            Y.                Y.. . . . . . , Y.    b.* . . . Z.                    Y.V . . . . . . -.Y.  Y.m . . . . . . . . < Y.    b.+ . . . . . p Y.        ",
"            Y.    Y.Y.Y.      Y.. . . . . . , Y.    b.* . . . Z.                    Y.V . . . . . . -.Y.  Y.m . . . . . . . . < Y.    b.+ . . . . . p Y.        ",
"            Y.  Y.W V A F.    Y.. . . . . . < Y.Y.Y.b.* . . . Z.                    Y.V . . . . . . -.Y.  Y.m . . . . . . . . < Y.    b.+ . . . . . p Y.        ",
"            Y.  s.p . * :.    Y.. . . . . . ; r.y.y.=.+ . . . Z.                    Y.V . . . . . . -.Y.  Y.m . . . . . . . . < Y.    b.+ . . . . . p Y.        ",
"            Y.x.. . . . . { Y.Y.+ . . . . . . . . . . . . . . B.                    Y.V . . . . . . -.Y.  Y.m . . . . . . . . < Y.    b.+ . . . . . p Y.        ",
"            Y.b.. . . . . { Y.Y.. . . . . . . . . . . . . p r.        Y.            Y.V . . . . . . -.Y.  Y.m . . . . . . . . 4 Y.    b.+ . . . . . p Y.        ",
"            Y.b.. . . . . { Y.Y.. . . . . . . . . . . . t W Y.        X.<.          Y.V . . . . . . -.Y.  Y.m . . . . . . . . < Y.    b.+ . . . . . p Y.        ",
"            Y.b.. . . . . { Y.Y.. . . . . . . . . . . . X.Y.        L.9 G Y.        Y.V . . . . . . $.Y.Y.Y.v . . . . . . . . < Y.    b.+ . . . . . p Y.        ",
"            Y.b.. . . . . { Y.Y.. . . . . . ; G.Y.Y.Y.Y.        Y.6.. . . 9 Z.      Y.V . . . . . . . . . . . . . . . . . . . < Y.    b.+ . . . . . p Y.        ",
"            Y.b.. . . . . { Y.Y.. . . . . . , Y.Y.              Y.6.. . . 4 Z.      Y.V . . . . . . . . . . . . . . . . . . . < Y.    b.+ . . . . . p Y.        ",
"            Y.b.. . . . . { Y.Y.. . . . . . , Y.                Y.6.. . . 4 Z.      Y.J < . . . . . . . . . . . . . . . . . . < Y.    b.+ . . . . . p Y.        ",
"            Y.b.. . . . . { Y.Y.. . . . . . , Y.                Y.6.. . . 4 Z.        Y.<.. . . . . . . . . . . . . . . . . . < Y.    b.+ . . . . . p Y.        ",
"            Y.b.. . . . . { Y.Y.. . . . . . , Y.                Y.6.. . . 4 Z.      Y.    =.< . . . . . . . . . . . . . . . . < Y.    b.+ . . . . . p Y.        ",
"            Y.b.. . . . . { Y.Y.. . . . . . , Y.        r.9.    Y.6.. . . 4 Z.      -.x.  Y.V , . . . . . . . . . . . . . . . 4 Y.    b.+ . . . . . p Y.        ",
"            Y.b.. . . . . { Y.Y.. . . . . . , Y.      Y.l g Y.  Y.6.. . . 4 Z.    z.+ ! Y.  Y.I . . . . . . . . . . . . . . . < Y.    b.+ . . . . . p Y.        ",
"            Y.b.. . . . . { Y.Y.. . . . . . , Y.    B.r * + 0 Z.Y.6.. . . 4 Z.Y.O.9 . ; l Y.  B.f.z.z.z.z.z.g . . . . . . . . < Y.    b.+ . . . . . t Y.        ",
"            Y.b.. . . . . { Y.Y.+ . . . . . , Y.    b.* . . . Z.Y.6.. . . 4 Z.Y.` . . . 0 Y.    Y.Y.Y.Y.Y.Y.m . . . . . . . . < Y.Y.Y.b.+ . . . . d ! Y.        ",
"            Y.b.. . . . . { Y.Y.. . . . . . , Y.    b.* . . . Z.Y.6.. . . 4 Z.Y.` . . . 0 Y.              Y.m . . . . . . . . , G.G.G.f.+ . . . . X.Y.          ",
"              b.. . . . . { Y.Y.. . . . . . , Y.    b.* . . . Z.Y.6.. . . 4 Z.Y.` . . . 0 Y.              Y.m . . . . . . . . . . . . . . . . . F.              ",
"              b.. . . . . { Y.Y.. . . . . . , Y.    b.* . . . Z.Y.6.. . . 4 Z.Y.` . . . 0 Y.              Y.m . . . . . . . . . . . . . . . 0 O.                ",
"              b.. . . . . P s.y.+ . . . . . , Y.    b.* . . . Z.Y.6.. . . 4 Z.Y.` . . . 0 Y.              Y.m . . . . . . . . . . . . . . < G Y.                ",
"              x.. . . . . . . . . . . . . . , Y.    b.* . . . Z.Y.6.. . . 4 Z.Y.` . . . 0 Y.              Y.m . . . . . . . . . . . . . . O.Y.                  ",
"                r.t . . . . . . . . . . . . , Y.    b.* . . . Z.Y.6.. . . 4 Z.Y.` . . . 0 Y.              Y.m . . . . . . . . , f.s.s.s.s.                      ",
"                Y.R r . . . . . . . . . . . , Y.    b.* . . . Z.Y.6.. . . 4 Z.Y.` . . . 0 Y.              Y.m . . . . . . . . 4 Y.Y.Y.Y.Y.                      ",
"                  Y.{ . . . . . . . . . . . , Y.    b.* . . . Z.Y.6.. . . 4 Z.Y.` . . . 0 Y.              Y.m . . . . . . . . < Y.                              ",
"                      x.* . . . . . . . . . , Y.    b.* . . . Z.Y.6.. . . 4 Z.Y.` . . . 0 Y.              Y.m . . . . . . . . < Y.                              ",
"                        _ ( ( ! . . . . . . , Y.    b.+ . . . D.Y.6.. . . 9 Z.Y.` . . . 0 Y.              Y.m . . . . . . . . < Y.                              ",
"                        Y.Y.Y.Y.+ . . . . . , Y.    B.r * . . <.f.X.. . . < <.f.J . . , v Y.              Y.m . . . . . . . . < Y.                              ",
"                              Y.+ . . . . . , Y.      Y.v . . . . . . . . . . . . . . ( Y.                Y.m . . . . . . . . < Y.                              ",
"                              Y.. . . . . . , Y.        f.R . . . . . . . . . . . ; @.B.                  Y.m . . . . . . . . 4 Y.                              ",
"                              Y.. . . . . . , Y.          9.v . . . . . . + j v v C D.                    Y.m . . . . . . . . < Y.                              ",
"                              Y.. . . . . . , Y.            Y.* . . . . . 9 Z.Y.Y.Y.                      Y.m . . . . . . . . < Y.                              ",
"                              Y.. . . . . . , Y.              G.G.=.. . . 4 Z.                            Y.m . . . . . . . . < Y.                              ",
"                              Y.. . . . . . , Y.                Y.6.. . . 4 Z.                            Y.m . . . . . . . . < Y.                              ",
"                              Y.. . . . . . , Y.                Y.6.. . . 4 Z.                            Y.m . . . . . . . . < Y.                              ",
"                              Y.. . . . . . , Y.                Y.6.. . . 4 Z.                            Y.m . . . . . . . . < Y.                              ",
"                              Y.+ . . . . . , Y.                Y.6.. . . 4 Z.                            Y.m . . . . . . . . < Y.                              ",
"                              Y.. . . . . . , Y.                Y.6.. . . 4 Z.                            Y.m . . . . . . . . 4 Y.                              ",
"                              Y.. . . . . . , Y.                Y.6.. . . 4 Z.                            Y.m . . . . . . . . < Y.                              ",
"                              Y.. . . . . . , Y.                Y.6.. . . 4 Z.                            Y.m . . . . . . . . < Y.                              ",
"                              Y.. . . . . . , Y.                Y.6.. . . 4 Z.                            Y.m . . . . . . . . < Y.                              ",
"                              Y.. . . . . . , Y.                Y.6.. . . 4 Z.                            Y.m . . . . . . . . < Y.      L.                      ",
"                              Y.. . . . . . , Y.                Y.6.. . . 4 Z.                            Y.m . . . . . . . . < Y.    b.+ X.Y.                  ",
"                              Y.. . . . . . , Y.                Y.6.. . . 4 Z.                    Y.    Y.Y.m . . . . . . . . < Y.      ` s.                    ",
"            B.z.              Y.. . . . . . , Y.                Y.6.. . . 4 Z.                    y.  B.y.s.f . . . . . . . . < Y.      Y.                      ",
"            P * Y.            Y.. . . . . . ; Y.        Y.Y.    Y.<.. . . < B.                Y.6.. :.{ . . . . . . . . . . . < Y.                              ",
"            f.<.                6.<.6.6.6.6.9.        Y.G D Y.      6.6.9.r.                      9.  b.9.9.9.9.9.9.r.r.r.r.r.@.0 9.                            ",
"              Y.                Y.Y.Y.Y.Y.Y.Y.        Y.W R Y.      Y.Y.Y.Y.                      Y.    Y.Y.Y.Y.Y.Y.Y.Y.Y.Y.Y.b.m y.                            ",
"                                                        Y.Y.                                                                    Y.                              ",
"                                                                                                                                                                ",
"                                                                                                                                                                ",
"                                                                                                                                                                ",
"                                                                                                                                                                ",
"                                                                                                                                                                ",
"                                                                                                                                                                ",
"                                                                                                                                                                ",
"                                                                                                                                                                "
};
