/* XPM */
static char *_3e69e82a6f24f35d2b8268925b67b41EPTt4yBCdxs9jRbp[] = {
/* columns rows colors chars-per-pixel */
"80 80 157 2 ",
"   c None",
".  c black",
"X  c #010101",
"o  c gray1",
"O  c #040404",
"+  c gray2",
"@  c #060606",
"#  c #070707",
"$  c gray3",
"%  c #090909",
"&  c gray4",
"*  c #0C0C0C",
"=  c gray5",
"-  c #0E0E0E",
";  c gray6",
":  c #101010",
">  c #111111",
",  c #131313",
"<  c gray8",
"1  c #161616",
"2  c gray9",
"3  c gray10",
"4  c #1B1B1B",
"5  c gray11",
"6  c #1D1D1D",
"7  c #202020",
"8  c #222222",
"9  c #232323",
"0  c gray14",
"q  c gray15",
"w  c #272727",
"e  c #2A2A2A",
"r  c gray17",
"t  c #2C2C2C",
"y  c gray19",
"u  c #343434",
"i  c #3A3A3A",
"p  c gray24",
"a  c gray25",
"s  c #444444",
"d  c #464646",
"f  c #494949",
"g  c gray29",
"h  c #4C4C4C",
"j  c gray30",
"k  c gray31",
"l  c #505050",
"z  c gray32",
"x  c #535353",
"c  c gray33",
"v  c gray34",
"b  c #585858",
"n  c #5A5A5A",
"m  c #5B5B5B",
"M  c gray36",
"N  c #5D5D5D",
"B  c gray37",
"V  c #606060",
"C  c gray38",
"Z  c #626262",
"A  c gray39",
"S  c #646464",
"D  c gray40",
"F  c #676767",
"G  c #686868",
"H  c DimGray",
"J  c #6C6C6C",
"K  c gray44",
"L  c #727272",
"P  c #7C7C7C",
"I  c gray49",
"U  c #7E7E7E",
"Y  c #808080",
"T  c gray51",
"R  c #838383",
"E  c gray53",
"W  c #888888",
"Q  c #8B8B8B",
"!  c gray55",
"~  c #8D8D8D",
"^  c #909090",
"/  c gray57",
"(  c #929292",
")  c #939393",
"_  c gray58",
"`  c #959595",
"'  c #979797",
"]  c #9A9A9A",
"[  c #9D9D9D",
"{  c #9F9F9F",
"}  c #A0A0A0",
"|  c #A2A2A2",
" . c gray64",
".. c #A4A4A4",
"X. c #A5A5A5",
"o. c #A7A7A7",
"O. c gray66",
"+. c #A9A9A9",
"@. c #AAAAAA",
"#. c #ACACAC",
"$. c gray68",
"%. c gray69",
"&. c #B1B1B1",
"*. c gray70",
"=. c gray71",
"-. c #B6B6B6",
";. c #B7B7B7",
":. c gray72",
">. c gray73",
",. c #BBBBBB",
"<. c gray74",
"1. c gray75",
"2. c gray76",
"3. c #C3C3C3",
"4. c gray77",
"5. c #C5C5C5",
"6. c gray78",
"7. c gray79",
"8. c gray80",
"9. c #CDCDCD",
"0. c #CECECE",
"q. c #D0D0D0",
"w. c #D2D2D2",
"e. c #D5D5D5",
"r. c gray84",
"t. c #D7D7D7",
"y. c gray85",
"u. c #DADADA",
"i. c gainsboro",
"p. c #DDDDDD",
"a. c gray87",
"s. c #DFDFDF",
"d. c #E2E2E2",
"f. c #E4E4E4",
"g. c #E6E6E6",
"h. c #E7E7E7",
"j. c gray91",
"k. c #E9E9E9",
"l. c #EAEAEA",
"z. c gray92",
"x. c #ECECEC",
"c. c gray93",
"v. c #EEEEEE",
"b. c gray94",
"n. c gray95",
"m. c #F3F3F3",
"M. c #F4F4F4",
"N. c gray96",
"B. c #F6F6F6",
"V. c gray97",
"C. c #F8F8F8",
"Z. c #F9F9F9",
"A. c gray98",
"S. c #FBFBFB",
"D. c gray99",
"F. c #FDFDFD",
"G. c white",
/* pixels */
"                                                                                                                                                                ",
"                                                                                        G.G.G.G.G.G.G.G.G.G.G.G.G.G.G.G.G.G.G.G.G.G.G.G.G.G.G.G.G.G.G.G.        ",
"                                                                                        G.G.G.G.G.G.G.G.G.G.G.G.G.G.G.G.G.G.G.G.G.G.G.G.G.G.G.G.G.G.G.G.        ",
"                                                                                      G.G.G.G.$.$.$.$.$.$.$.$.$.$.$.$.$.$.$.$.$.$.$.$.$.$.$.$.$.:.G.G.G.        ",
"                                                                                G.G.G.G.G.G.r.. . . . . . . . . . . . . . . . . . . . . . . . . . G.G.G.        ",
"                                                                                G.G.G.G.G.G.u.. . . . . . . . . . . . . . . . . . . . . . . . . . G.G.G.        ",
"                                                                                G.G.G.G.B.C.9.. . . . . . . . . . . . . . . . . . . . . . . . . . m.C.B.        ",
"                                                                                G.G.G.*.. . . . . . . . . . . . . . . . . . . . . . . . . . . . . . . @ u.G.G.  ",
"                                                                                G.G.G. .. . . . . . u k v : . . . . . . . . . . . . . . . . . . . . . . r.G.G.  ",
"                                                                                G.G.G.X.. . . . . . 1.G.G.G . . . . . . . . . . . . . . . . . . . . . . r.G.G.  ",
"                                                                                G.G.G.X.. . . . . @ 1.G.G.J . . . . . . . . . . . . . . . . . . . . . . r.G.G.  ",
"                                                                                G.G.G.X.. . . . . . =.B.C.V . . . . . . . . . . . . . . . . . . . . . . r.G.G.  ",
"                                                                                G.G.G.X.. . . . . . : 5 7 @ . . . . . . . . . . . . . . . . . . . . . . r.G.G.  ",
"                                                                                G.G.G.X.. . . . . . . . . . . . . . . . . . . . . . . . . . . . . . . . r.G.G.  ",
"                                                                                G.G.G.X.. . . . . . . . . . . . . . . . . . . . . . . . . . . . . . . . r.G.G.  ",
"                                                                                G.G.G.X.. . . . . . . . . . . . . . . . . . . . . . . . . . . . . . . . r.G.G.  ",
"                                                                                G.G.G.X.. . . . . . . . . . . . . . . . . . . . . . . . . . . . . . . . r.G.G.  ",
"                                                                                G.G.G.X.. . . . . . . . . . . . . . . . . . . . . . . . . . . . . . . . r.G.G.  ",
"                                                                                G.G.G.X.. . . . . . . . . . . . . . . . . . . . . . . . . . . . . . . . r.G.G.  ",
"                                                                                G.G.G.X.. . . . . . . . . . . . . . . . . . . . . . . . . . . . . . . . r.G.G.  ",
"                                                                                G.G.G.X.. . . . . . . . . . . . . . . . . . . . . . . . . . . . . . . . r.G.G.  ",
"                                                                                G.G.G.X.. . . . . . . . . . . . . . . . . . . . . . . . . . . . . . . . r.G.G.  ",
"                                                                                G.G.G.X.. . . . . . . . . . . . . . . - *.:.:.:.:.:.:.:.:.:.:.:.:.:.:.=.C.G.G.  ",
"                                                                                G.G.G.X.. . . . . . . . . . . . . . . 5 B.G.G.G.G.G.G.G.G.G.G.G.G.G.G.G.G.G.G.  ",
"                                                                                G.G.G.X.. . . . . . . . . . . . . . . 5 B.G.G.G.G.G.G.G.G.G.G.G.G.G.G.G.G.G.G.  ",
"                                                                                G.G.G.X.. . . . . . . . . . . . . . . @ U R R R R R R R R =.G.G.G.G.G.G.G.G.G.  ",
"                      G.G.G.G.G.G.G.                                      G.G.G.G.G.G.X.. . . . . . . . . . . . . . . . . . . . . . . . . k G.G.G.              ",
"                      G.G.G.G.G.G.G.                                      G.G.G.G.G.G.X.. . . . . . . . . . . . . . . . . . . . . . . . . k G.G.G.              ",
"                      k.f.d.C.G.G.G.                                      G.G.G.m.d.f.! . . . . . . . . . . . . . : : : : : : : : : : : - D G.G.G.              ",
"                G.G.B.w $ $ ] G.G.G.                            G.G.G.G.G.G.G.G.N $ - @ . . . . . . . . . . . . x v.k.k.k.k.k.k.k.k.k.k.k.B.G.G.G.              ",
"                G.G.B.5 . . ( G.G.G.                            G.G.G.G.G.G.G.G.k . . . . . . . . . . . . . . . D G.G.G.G.G.G.G.G.G.G.G.G.G.G.G.G.              ",
"                G.G.B.5 . . ( G.G.G.                            G.G.G.G.G.G.G.G.x . . . . . . . . . . . . . . . D G.G.G.G.G.G.G.G.G.G.G.G.G.G.G.G.              ",
"                G.G.B.5 . . ( G.G.G.                    G.G.G.G.G.G.G.=.i p p s $ . . . . . . . . . . . . . . . D G.G.G.G.G.G.G.G.G.G.                          ",
"                G.G.B.5 . . ( G.G.G.                  G.G.G.G.G.G.G.G.( . . . . . . . . . . . . . . . . . . . . D G.G.G.G.G.G.G.G.G.                            ",
"                G.G.B.5 . . ( G.G.G.                  G.G.G.G.G.G.G.G.( . . . . . . . . . . . . . . . . . . . . G G.G.G.G.G.G.G.G.G.                            ",
"                G.G.B.5 . . x $.X.3.                  G.G.G.k. .+.+.$.f . . . . . . . . . . . . . . . . . . . . r $.+.+.+.+.+.C.G.G.                            ",
"                G.G.B.5 . . . . . N G.G.G.G.G.G.G.G.G.G.G.G. .. . . . . . . . . . . . . . . . . . . . . . . . . . . . . . . . 4.G.G.                            ",
"                G.G.B.5 . . . . . V G.G.G.G.G.G.G.G.G.G.G.G.X.. . . . . . . . . . . . . . . . . . . . . . . . . . . . . . . . 4.G.G.                            ",
"                G.G.B.5 . . . . . v C.B.C.G.G.G.G.G.G.G.B.C._ . . . . . . . . . . . . . . . . . . . . . . . . . . . . . . . . 4.G.G.                            ",
"                G.G.B.5 . . . . . . . . 7 B.G.G.G.G.G.L . . . . . . . . . . . . . . . . . . . . . . . . . . . . f G.C.9.. . . 4.G.G.                            ",
"                G.G.B.5 . . . . . . . . < m.G.G.G.G.G.N . . . . . . . . . . . . . . . . . . . . . . . . . . . . D G.G.i.. . . 4.G.G.                            ",
"                G.G.B.5 . . . . . . . . < m.G.G.G.G.G.V . . . . . . . . . . . . . . . . . . . . . . . . . . . . D G.G.i.. . . 4.G.G.                            ",
"                G.G.B.5 . . . . . . . . @ N D D D D D < . . . . . . . . . . . . . . . . . . . . . . . . . . . . D G.G.B.W W E B.G.G.                            ",
"                G.G.B.5 . . . . . . . . . . . . . . . . . . . . . . . . . . . . . . . . . . . . . . . . . . . . D G.G.G.G.G.G.G.G.G.                            ",
"                G.G.B.5 . . . . . . . . . . . . . . . . . . . . . . . . . . . . . . . . . . . . . . . . . . . . D G.G.G.G.G.G.G.G.G.                            ",
"                G.G.B.5 . . . . . . . . . . . . . . . . . . . . . . . . . . . . . . . . . . . . . . . . . . . . D G.G.G.G.G.G.G.G.G.                            ",
"                G.G.B.5 . . . . . . . . . . . . . . . . . . . . . . . . . . . . . . . . . . . . . . . . . . . . D G.G.G.                                        ",
"                G.G.B.5 . . . . . . . . . . . . . . . . . . . . . . . . . . . . . . . . . . . . . . . . . . . . D G.G.G.                                        ",
"                G.G.B.5 . . . . . . . . . . . . . . . . . . . . . . . . . . . . . . . . . . . . . . . . . . . . D G.G.G.                                        ",
"                      r.9.w.f . . . . . . . . . . . . . . . . . . . . . . . . . . . . . . . . . . . . . . . . . V G.G.G.                                        ",
"                      G.G.G.J . . . . . . . . . . . . . . . . . . . . . . . . . . . . . . . . . . . . . . : r w U G.G.G.                                        ",
"                      G.G.G.G . . . . . . . . . . . . . . . . . . . . . . . . . . . . . . . . . . . . . . ! G.G.G.                                              ",
"                            *.U W a . . . . . . . . . . . . . . . . . . . . . . . . . . . . . . . . . . . ( G.G.G.                                              ",
"                            G.G.G.( . . . . . . . . . . . . . . . . . . . . . . . . . . . . . . . . . . . ( G.G.G.                                              ",
"                            G.G.G.( . . . . . . . . . . . . . . . . . . . . . . . . . . . . . . . . . . . ( G.G.G.                                              ",
"                              G.G.{ - < - . . . . . . . . . . . . . . . . . . . . . . . . . . . . . - < - X.G.G.G.                                              ",
"                                    G.G.i.@ . . . . . . . . . . . . . . . . . . . . . . . . . . . . :.G.G.G.G.G.G.                                              ",
"                                    G.G.i.@ . . . . . . . . . . . . . . . . . . . . . . . . . . . . :.G.G.G.G.G.G.                                              ",
"                                    G.G.i.@ . . . . . . . . . . . . . . . . . . . . . . . . . . . @ 1.G.G.G.G.G.G.                                              ",
"                                          4.3.7.$ . . . . . . . . . . . . . . . . . . . . . @ 3.3.4.C.G.G.G.                                                    ",
"                                          G.G.G.3 . . . . . . . . . . . . . . . . . . . . . < G.G.G.G.G.G.                                                      ",
"                                          G.G.G.: . . . . . . . . . . . . . . . . . . . . . < G.G.G.G.G.G.                                                      ",
"                                          G.G.G.L v m : . . . . . . . . . a m m m m m y . . @ ( _ _ ( *.G.G.                                                    ",
"                                          G.G.G.G.G.G.V . . . . . . . . . r.G.G.G.G.G.+.. . . . . . . w G.G.G.G.G.G.                                            ",
"                                          G.G.G.G.G.G.N . . . . . . . . . w.G.G.G.G.G. .. . . . . . . w G.G.G.G.G.G.                                            ",
"                                          G.G.G.G.G.G.N . . . . . . 3 5 5 r.G.G.G.G.G.=.3 3 3 3 3 3 3 s G.G.G.G.G.G.                                            ",
"                                                G.G.G.N . . . . . 5 k.v.k.      G.G.G.G.k.v.v.v.v.v.v.m.G.G.G.                                                  ",
"                                                G.G.G.N . . . . . w G.G.G.      G.G.G.G.G.G.G.G.G.G.G.G.G.G.G.                                                  ",
"                                                G.G.G.N . . . . . w G.G.G.      G.G.G.G.G.G.G.G.G.G.G.G.G.G.G.                                                  ",
"                                                G.G.G.N . . w  .{ X.                                                                                            ",
"                                                G.G.G.N . . k G.G.G.                                                                                            ",
"                                                G.G.G.N . . k G.G.G.                                                                                            ",
"                                                G.G.G.N . . 7 { _ +.                                                                                            ",
"                                                G.G.G.N . . . . . w G.G.G.                                                                                      ",
"                                                G.G.G.N . . . . . w G.G.G.                                                                                      ",
"                                                G.G.G.D . @ @ @ @ t G.G.G.                                                                                      ",
"                                                G.G.G.m.i.i.i.i.i.f.G.G.G.                                                                                      ",
"                                                G.G.G.G.G.G.G.G.G.G.G.G.G.                                                                                      ",
"                                                G.G.G.G.G.G.G.G.G.G.G.G.G.                                                                                      ",
"                                                                                                                                                                "
};
