/* XPM */
static char *_d19d07d47ad4a4691ed2aa4ac72d601[] = {
/* columns rows colors chars-per-pixel */
"80 80 201 2 ",
"   c None",
".  c black",
"X  c #010101",
"o  c #020202",
"O  c gray1",
"+  c #040404",
"@  c gray2",
"#  c #060606",
"$  c #070707",
"%  c gray3",
"&  c #090909",
"*  c gray4",
"=  c #0B0B0B",
"-  c #0C0C0C",
";  c gray5",
":  c #0E0E0E",
">  c gray6",
",  c #101010",
"<  c #111111",
"1  c gray7",
"2  c #131313",
"3  c #151515",
"4  c #161616",
"5  c #181818",
"6  c #191919",
"7  c gray10",
"8  c #1B1B1B",
"9  c gray11",
"0  c #1D1D1D",
"q  c gray12",
"w  c #202020",
"e  c #222222",
"r  c gray14",
"t  c #252525",
"y  c gray15",
"u  c #272727",
"i  c #282828",
"p  c gray16",
"a  c gray17",
"s  c #2C2C2C",
"d  c #2D2D2D",
"f  c gray18",
"g  c #2F2F2F",
"h  c #313131",
"j  c #323232",
"k  c #343434",
"l  c #353535",
"z  c gray21",
"x  c #373737",
"c  c gray22",
"v  c gray23",
"b  c gray24",
"n  c #3E3E3E",
"m  c gray25",
"M  c #414141",
"N  c gray26",
"B  c #434343",
"V  c #444444",
"C  c gray27",
"Z  c #464646",
"A  c gray28",
"S  c #484848",
"D  c #494949",
"F  c gray29",
"G  c #4B4B4B",
"H  c #4C4C4C",
"J  c gray30",
"K  c #4E4E4E",
"L  c #505050",
"P  c #515151",
"I  c gray32",
"U  c #535353",
"Y  c gray33",
"T  c #555555",
"R  c #565656",
"E  c gray34",
"W  c #585858",
"Q  c gray35",
"!  c #5B5B5B",
"~  c #5D5D5D",
"^  c #5F5F5F",
"/  c #606060",
"(  c gray38",
")  c gray39",
"_  c #656565",
"`  c #686868",
"'  c DimGray",
"]  c #6A6A6A",
"[  c gray42",
"{  c #6D6D6D",
"}  c gray43",
"|  c #6F6F6F",
" . c gray44",
".. c #717171",
"X. c #727272",
"o. c gray45",
"O. c gray46",
"+. c #767676",
"@. c gray47",
"#. c #797979",
"$. c gray48",
"%. c #7B7B7B",
"&. c #7C7C7C",
"*. c #808080",
"=. c #818181",
"-. c gray51",
";. c gray52",
":. c #868686",
">. c #888888",
",. c #898989",
"<. c gray54",
"1. c gray55",
"2. c #8D8D8D",
"3. c gray56",
"4. c gray57",
"5. c gray58",
"6. c #959595",
"7. c #9D9D9D",
"8. c gray62",
"9. c #9F9F9F",
"0. c #A0A0A0",
"q. c gray63",
"w. c #A2A2A2",
"e. c #A4A4A4",
"r. c gray65",
"t. c #A7A7A7",
"y. c gray66",
"u. c #A9A9A9",
"i. c #AAAAAA",
"p. c gray67",
"a. c #ACACAC",
"s. c gray68",
"d. c #AEAEAE",
"f. c #B1B1B1",
"g. c #B2B2B2",
"h. c gray70",
"j. c #B4B4B4",
"k. c gray71",
"l. c #B7B7B7",
"z. c #B9B9B9",
"x. c gray73",
"c. c #BBBBBB",
"v. c #BCBCBC",
"b. c gray74",
"n. c gray",
"m. c gray75",
"M. c #C0C0C0",
"N. c #C1C1C1",
"B. c gray76",
"V. c #C3C3C3",
"C. c gray77",
"Z. c gray78",
"A. c #C8C8C8",
"S. c #CACACA",
"D. c #CBCBCB",
"F. c gray80",
"G. c #CDCDCD",
"H. c #D0D0D0",
"J. c gray82",
"K. c #D2D2D2",
"L. c LightGray",
"P. c gray83",
"I. c #D5D5D5",
"U. c gray84",
"Y. c #D7D7D7",
"T. c #D8D8D8",
"R. c gray85",
"E. c #DADADA",
"W. c gray86",
"Q. c gainsboro",
"!. c gray87",
"~. c #DFDFDF",
"^. c gray88",
"/. c #E1E1E1",
"(. c #E2E2E2",
"). c gray89",
"_. c #E4E4E4",
"`. c gray90",
"'. c #E6E6E6",
"]. c #E7E7E7",
"[. c gray91",
"{. c #E9E9E9",
"}. c gray92",
"|. c #ECECEC",
" X c #EEEEEE",
".X c #EFEFEF",
"XX c gray94",
"oX c gray95",
"OX c #F3F3F3",
"+X c #F4F4F4",
"@X c gray96",
"#X c #F6F6F6",
"$X c gray97",
"%X c #F8F8F8",
"&X c #F9F9F9",
"*X c gray98",
"=X c #FBFBFB",
"-X c gray99",
";X c #FDFDFD",
":X c #FEFEFE",
">X c white",
/* pixels */
"                                                                                    >X>X>X>X>X>X>X>X>X>X>X>X>X>X>X>X>X>X>X>X>X>X>X>X>X>X>X>X>X                  ",
"                                                                                  >X>X>X>X>X>X>X>X>X>X>X>X>X>X>X>X>X>X>X>X>X>X>X>X>X>X>X>X>X>X>X                ",
"                                                                                >X>X>X$X`.`.`.`.`.`.`.`.`.`.`.`.`.`.`.`.`.`.`.`.`.`.`.`.`.|.>X>X>X              ",
"                                                                              >X>X>X>Xn.~ Y Y Y Y Y Y Y P P P P Y Y Y Y Y Y Y Y P P P P Y $.[.>X>X>X            ",
"                                                                            >X>X>X>X>X0., O O O O O O O O O O O O O O O O O O O O O O O O f P.>X>X>X>X          ",
"                                                                          >X>X>X&X$XOX6.> O O O O O O O O O O O O O O O O O O O O O O O O y D.$X&X>X>X>X        ",
"                                                                          >X>X$Xj.>.*.m + O O O O O O O O O O O O O O O O O O O O O O O O 3 | :.6.^.>X>X>X      ",
"                                                                          >X>X~.P % + O O O % 8 q 8 + O O O O O O O O O O O O O O O O O O O + + q f.>X>X>X      ",
"                                                                          >X>X~.F O O O O O m a.n.0.f O O O O O O O O O O O O O O O O O O O O O , u.>X>X>X      ",
"                                                                          >X>X~.J O O O O O ] |.>X^.F O O O O O O O O O O O O O O O O O O O O O , u.>X>X>X      ",
"                                                                          >X>X~.J O O O O O _ [.&X~.A O O O O O O O O O O O O O O O O O O O O O , u.>X>X>X      ",
"                                                                          >X>X~.J O O O O O l 5.r.2.y O O O O O O O O O O O O O O O O O O O O O , u.>X>X>X      ",
"                                                                          >X>X~.J O O O O O + > , > O O O O O O O O O O O O O O O O O O O O O O , u.>X>X>X      ",
"                                                                          >X>X~.J O O O O O O O O O O O O O O O O O O O O O O O O O O O O O O O , u.>X>X>X      ",
"                                                                          >X>X~.J O O O O O O O O O O O O O O O O O O O O O O O O O O O O O O O , u.>X>X>X      ",
"                                                                          >X>X~.J O O O O O O O O O O O O O O O O O O O O O O O O O O O O O O O , u.>X>X>X      ",
"                                                                          >X>X~.J O O O O O O O O O O O O O O O O O O O O O O O O O O O O O O O , u.&X>X>X      ",
"                                                                          >X>X~.J O O O O O O O O O O O O O O O O O O O O O O O O O O O O O O O , u.&X>X>X      ",
"                                                                          >X>X~.J O O O O O O O O O O O O O O O O O O O O O O O O O O O O O O O , u.&X>X>X      ",
"                                                                          >X>X~.J O O O O O O O O O O O O O O O O O O O O O O O O O O O O O O O , u.&X>X>X      ",
"                                                                          >X>X~.J O O O O O O O O O O O O O O O O O O O O O O O O O O O O O O O 3 a.>X>X>X      ",
"                                                                          >X>X~.J O O O O O O O O O O O O O O O , m F F F F F F F F F F F F F F ~ D.>X>X>X      ",
"                                                                          >X>X~.J O O O O O O O O O O O O O O O F P.`.`.`.`.`.`.`.`.`.`.`.`.`.`.[.&X>X>X>X      ",
"                                                                          >X>X~.J O O O O O O O O O O O O O O O W OX>X>X>X>X>X>X>X>X>X>X>X>X>X>X>X>X>X>X        ",
"                                                                          >X>X~.J O O O O O O O O O O O O O O O P ^.OXOXOXOXOXOXOXOX&X>X>X>X>X>X>X>X>X          ",
"                                                                          >X>X~.J O O O O O O O O O O O O O O O q / ] ] ] ] ] ] ] | j.&X>X>X                    ",
"          >X>X>X>X>X>X>X                                              >X>X>X>X^.J O O O O O O O O O O O O O O O O O O O O O O O O % O.|.>X>X                    ",
"        >X>X>X>X>X>X>X>X>X                                          >X>X>X>X>X`.W + O O O O O O O O O O O O + + + + + + + + + + + % $.OX>X>X                    ",
"        >X>X&XK.C.N.^.>X>X>X                                        >X>X$XD.C.u.l O O O O O O O O O O O O f / ] ] ] ] ] ] ] ] ] ] | f.$X>X>X                    ",
"        >X>X[.] y p 2.&X>X>X                                >X>X>X>X>X>XD.b y q + O O O O O O O O O O O > *.[.OXOXOXOXOXOXOXOXOXOXOX&X>X>X>X                    ",
"        >X>X`.Y O % $.$X>X>X                                >X>X>X>X>X>Xn.q O O O O O O O O O O O O O O > 2.$X>X>X>X>X>X>X>X>X>X>X>X>X>X>X                      ",
"        >X>X`.Y O % $.$X>X>X                              >X>X>X|.`.`.^.u.8 O O O O O O O O O O O O O O > 2.$X>X>X>X>X>X>X>X>X>X>X>X>X>X                        ",
"        >X>X`.Y O % $.$X>X>X                            >X>X>X^...F F F l % O O O O O O O O O O O O O O > 2.$X>X>X                                              ",
"        >X>X`.Y O % $.$X>X>X>X>X                  >X>X>X>X>X>XD.p O O O O O O O O O O O O O O O O O O O > 2.$X>X>X>X>X>X>X>X                                    ",
"        >X>X`.Y O % $.$X>X>X>X>X>X              >X>X>X>X>X>X>XC.y O O O O O O O O O O O O O O O O O O O > >.$X>X>X>X>X>X>X>X>X                                  ",
"        >X>X`.Y O + A 0.u.N.$X>X>X              >X>XOXc.u.u.u.$.3 O O O O O O O O O O O O O O O O O O O + P 0.u.u.u.u.j.OX>X>X                                  ",
"        >X>X`.Y O O % 8 8 _ `.>X>X>X>X      >X>X>X>X~.P 8 8 8 , O O O O O O O O O O O O O O O O O O O O O % 3 8 8 8 8 A ~.>X>X                                  ",
"        >X>X`.Y O O O O O P `.>X>X>X>X>X  >X>X>X>X>XP.b O O O O O O O O O O O O O O O O O O O O O O O O O O O O O O O l T.>X>X                                  ",
"        >X>X`.P O O O O O A N.P.^.&X>X>X>X>X>X$XT.P.a.f O O O O O O O O O O O O O O O O O O O O O O O O O 3 y y 8 O O l T.>X>X                                  ",
"        >X>X`.P O O O O O > y f Y ^.>X>X>X>X>XD.m f e + O O O O O O O O O O O O O O O O O O O O O O O O % O.D.G.>.> O l T.>X>X                                  ",
"        >X>X`.Y O O O O O O O O p K.>X>X>X>X>Xn.8 O O O O O O O O O O O O O O O O O O O O O O O O O O O > 2.$X>Xr.> O l T.>X>X                                  ",
"        >X>X`.Y O O O O O O O O y G.&X&X&X&X&Xj.8 O O O O O O O O O O O O O O O O O O O O O O O O O O O > 2.$X>Xf.e , m T.>X>X                                  ",
"        >X>X`.Y O O O O O O O O , ] 2.2.2.2.>.W % O O O O O O O O O O O O O O O O O O O O O O O O O O O > 2.$X>X[.f.u.c.OX>X>X                                  ",
"        >X>X`.Y O O O O O O O O O % > > > > > + O O O O O O O O O O O O O O O O O O O O O O O O O O O O > 2.$X>X>X&X>X>X>X>X>X                                  ",
"        >X>X`.Y O O O O O O O O O O O O O O O O O O O O O O O O O O O O O O O O O O O O O O O O O O O O > 2.$X>X>X>X>X>X>X>X                                    ",
"        >X>X`.Y O O O O O O O O O O O O O O O O O O O O O O O O O O O O O O O O O O O O O O O O O O O O > 2.$X>X>X>X>X>X>X                                      ",
"        >X>X`.Y O O O O O O O O O O O O O O O O O O O O O O O O O O O O O O O O O O O O O O O O O O O O > 2.$X>X>X                                              ",
"        >X>X`.Y O O O O O O O O O O O O O O O O O O O O O O O O O O O O O O O O O O O O O O O O O O O O > 2.$X>X>X                                              ",
"        >X>X[.| p y > O O O O O O O O O O O O O O O O O O O O O O O O O O O O O O O O O O O O O O O O O > 2.$X>X>X                                              ",
"        >X>X&XK.n.j.W + O O O O O O O O O O O O O O O O O O O O O O O O O O O O O O O O O O O O O O O O > 2.$X>X>X                                              ",
"        >X>X>X>X>X$X*.% O O O O O O O O O O O O O O O O O O O O O O O O O O O O O O O O O O O O O O q y l r.&X>X>X                                              ",
"          >X>X>X>X$X>.> O O O O O O O O O O O O O O O O O O O O O O O O O O O O O O O O O O O O O 3 5.D.K.|.>X>X>X                                              ",
"              >X>X&Xc./ Y v % O O O O O O O O O O O O O O O O O O O O O O O O O O O O O O O O O O 8 j.>X>X>X>X>X                                                ",
"              >X>X>X&XOX|.0.8 O O O O O O O O O O O O O O O O O O O O O O O O O O O O O O O O O O 8 j.>X>X>X>X                                                  ",
"                >X>X>X>X>Xu.8 O O O O O O O O O O O O O O O O O O O O O O O O O O O O O O O O O O 8 j.>X>X>X                                                    ",
"                  >X>X>X>Xc.b h y + O O O O O O O O O O O O O O O O O O O O O O O O O O O O % y h A D.>X>X                                                      ",
"                      >X>X|.K.P.a.e O O O O O O O O O O O O O O O O O O O O O O O O O O O O m c.K.P.$X>X>X                                                      ",
"                      >X>X>X>X>XP.f O O O O O O O O O O O O O O O O O O O O O O O O O O O O W `.>X>X>X>X>X                                                      ",
"                        >X>X>X>XT.l % % O O O O O O O O O O O O O O O O O O O O O O O O + % P ^.>X>X>X>X                                                        ",
"                            >X>XOX9.$...f O O O O O O O O O O O O O O O O O O O O O O b O.$.a.OX>X>X                                                            ",
"                            >X>X>X&X$X|.O.% O O O O O O O O O O O O O O O O O O O O % 6.OX$X&X>X>X>X                                                            ",
"                              >X>X>X>XOX| % O O O O O O O O O O O O O O O O O O O O > 9.>X>X>X>X>X                                                              ",
"                                >X>X>X$X6.F F y O O O O O O O O O q F J h + O O O O > 9.>X>X>X>X                                                                ",
"                                  >X>X>X[.T.T.2., O O O O O O O O ~ K.~.0.3 O O O O > 9.>X>X>X                                                                  ",
"                                    >X>X>X>X>Xn.8 O O O O O O O + ..OX>Xn.8 O O O O > 9.>X>X>X                                                                  ",
"                                      >X>X>X>Xn.8 O O O O O + > , *.$X>XC.p > % O O > 9.>X>X>X                                                                  ",
"                                          >X>Xn.8 O O O O + / 9.r.P.>X>X|.f.9.>.f O > 9.>X>X>X                                                                  ",
"                                          >X>Xn.8 O O O O > 9.&X>X>X>X>X>X>X>X^.P + > 9.>X>X>X                                                                  ",
"                                          >X>Xn.8 O O O O > 9.>X>X>X>X>X>X>X>X^.J O > 9.>X>X>X                                                                  ",
"                                          >X>Xn.8 O > A P P N.>X>X>X    >X>X>X~.J O > 9.>X>X>X                                                                  ",
"                                          >X>Xn.8 O h c.^.~.$X>X>X>X      >X>X~.J O > 9.>X>X>X>X                                                                ",
"                                          >X>Xn.8 O b K.>X>X>X>X>X        >X>X~.J O > 9.>X>X>X>X>X                                                              ",
"                                          >X>Xn.8 O l c.`.`.&X>X>X>X      >X>X~.J O % :.^.`.OX>X>X>X                                                            ",
"                                          >X>Xn.8 O > v m P N.>X>X>X      >X>X~.J O O y F A >.|.>X>X                                                            ",
"                                          >X>Xn.8 O O O O , 0.>X>X>X      >X>X~.F O O O O O J ~.>X>X                                                            ",
"                                          >X>Xn.q O + + + , 0.>X>X>X      >X>X~.J + + + + + P ^.>X>X                                                            ",
"                                          >X>XT...W W W W _ D.>X>X>X      >X>XOX9.~ W W W W 9.OX>X>X                                                            ",
"                                          >X>X&X[.`.`.`.`.[.&X>X>X>X      >X>X>XOX`.`.`.`.`.OX>X>X>X                                                            ",
"                                          >X>X>X>X>X>X>X>X>X>X>X>X          >X>X>X>X>X>X>X>X>X>X>X                                                              ",
"                                            >X>X>X>X>X>X>X>X>X>X              >X>X>X>X>X>X>X>X>X                                                                "
};
