/* XPM */
static char *_94887d3e2bb4327bb5082fdfa0ae547PfyWxjnR932Cz3QY[] = {
/* columns rows colors chars-per-pixel */
"80 80 241 2 ",
"   c black",
".  c white",
"X  c white",
"o  c white",
"O  c white",
"+  c white",
"@  c white",
"#  c white",
"$  c #D8D8D8",
"%  c #D2D2D2",
"&  c LightGray",
"*  c gray83",
"=  c #F8F8F8",
"-  c white",
";  c white",
":  c white",
">  c #FEFEFE",
",  c gray15",
"<  c black",
"1  c None",
"2  c gainsboro",
"3  c white",
"4  c white",
"5  c white",
"6  c #D0D0D0",
"7  c gray17",
"8  c #040404",
"9  c #020202",
"0  c gray12",
"q  c gray58",
"w  c white",
"e  c white",
"r  c gray79",
"t  c #7C7C7C",
"y  c white",
"u  c white",
"i  c white",
"p  c #CACACA",
"a  c #7E7E7E",
"s  c white",
"d  c white",
"f  c white",
"g  c white",
"h  c white",
"j  c gray88",
"k  c gray86",
"l  c #DADADA",
"z  c #EAEAEA",
"x  c white",
"c  c white",
"v  c white",
"b  c white",
"n  c gray28",
"m  c #9A9A9A",
"M  c white",
"N  c white",
"B  c #ECECEC",
"V  c #434343",
"C  c gray3",
"Z  c gray9",
"A  c gray45",
"S  c #FEFEFE",
"D  c white",
"F  c white",
"G  c white",
"H  c #E1E1E1",
"J  c #484848",
"K  c white",
"L  c white",
"P  c white",
"I  c gray89",
"U  c #494949",
"Y  c white",
"T  c white",
"R  c white",
"E  c white",
"W  c white",
"Q  c white",
"!  c white",
"~  c white",
"^  c white",
"/  c white",
"(  c white",
")  c white",
"_  c #E2E2E2",
"`  c black",
"'  c gray6",
"]  c #E9E9E9",
"[  c white",
"{  c white",
"}  c white",
"|  c gray67",
" . c #434343",
".. c gray1",
"X. c gray30",
"o. c gray70",
"O. c white",
"+. c white",
"@. c white",
"#. c #818181",
"$. c #929292",
"%. c white",
"&. c white",
"*. c #838383",
"=. c white",
"-. c white",
";. c white",
":. c white",
">. c white",
",. c white",
"<. c white",
"1. c white",
"2. c gray99",
"3. c white",
"4. c white",
"5. c white",
"6. c gray88",
"7. c white",
"8. c gray94",
"9. c gray48",
"0. c #181818",
"q. c white",
"w. c white",
"e. c gray37",
"r. c #111111",
"t. c white",
"y. c white",
"u. c #8B8B8B",
"i. c white",
"p. c gray83",
"a. c gray2",
"s. c white",
"d. c #ECECEC",
"f. c #313131",
"g. c #090909",
"h. c white",
"j. c #565656",
"k. c white",
"l. c white",
"z. c white",
"x. c white",
"c. c LightGray",
"v. c gray75",
"b. c #C1C1C1",
"n. c gray76",
"m. c #C3C3C3",
"M. c #979797",
"N. c gray51",
"B. c white",
"V. c white",
"C. c #868686",
"Z. c white",
"A. c #9F9F9F",
"S. c #9D9D9D",
"D. c #A0A0A0",
"F. c gray27",
"G. c #B1B1B1",
"H. c white",
"J. c white",
"K. c #101010",
"L. c gray92",
"P. c white",
"I. c white",
"U. c gray31",
"Y. c #FEFEFE",
"T. c white",
"R. c white",
"E. c #585858",
"W. c gray68",
"Q. c white",
"!. c #252525",
"~. c #C0C0C0",
"^. c white",
"/. c gray3",
"(. c #FDFDFD",
"). c white",
"_. c #5B5B5B",
"`. c gray",
"'. c gray74",
"]. c #BCBCBC",
"[. c #C5C5C5",
"{. c white",
"}. c #808080",
"|. c white",
" X c white",
".X c white",
"XX c white",
"oX c white",
"OX c white",
"+X c white",
"@X c white",
"#X c white",
"$X c white",
"%X c white",
"&X c white",
"*X c #CECECE",
"=X c white",
"-X c #818181",
";X c #131313",
":X c white",
">X c white",
",X c white",
"<X c #989898",
"1X c #8E8E8E",
"2X c #FEFEFE",
"3X c #7B7B7B",
"4X c gray45",
"5X c #535353",
"6X c gray49",
"7X c white",
"8X c white",
"9X c gray72",
"0X c #838383",
"qX c white",
"wX c white",
"eX c white",
"rX c white",
"tX c #646464",
"yX c gray36",
"uX c #FEFEFE",
"iX c gray18",
"pX c gray14",
"aX c gray58",
"sX c white",
"dX c #FEFEFE",
"fX c #FEFEFE",
"gX c #FEFEFE",
"hX c white",
"jX c white",
"kX c white",
"lX c white",
"zX c white",
"xX c #8B8B8B",
"cX c #565656",
"vX c white",
"bX c white",
"nX c #898989",
"mX c gray40",
"MX c white",
"NX c white",
"BX c white",
/* pixels */
"                                                                                                                                                                ",
"                                                                        . X o o o o o O +                                                                       ",
"                                                                      @ # $ % & & & & * = -                                                                     ",
"                                                                    ; : > , < < < < < 1 2 3 4                                                                   ",
"                                                                    5 6 7 8 < < < < < 9 0 q o w                                                                 ",
"                                                                    e r < < < < < < < < < t y u                                                                 ",
"                                                                    i p < < < < < < < < < a s u                                                                 ",
"                                                                    i p < < < < < < < < < a s u                                                                 ",
"                                                    d i i i f       i p < < < < < < < < < a s u                                                                 ",
"                                                g h j k k l z x ;   i p < < < < < < < < < a s u                                                                 ",
"                                              c v b n < < < m M @   i p < < < < < < < < < a s u                                                                 ",
"                                              N B V C < < < Z A S D F p < < < < < < < < < a s u                                                                 ",
"                                              G H < < < < < < J K L F p < < < < < < < < < a s u                                                                 ",
"                                              P I < < < < < < U Y h F p < < < < < < < < < a s u                                                                 ",
"                                              P I < < < < < < U Y h F p < < < < < < < < < a s u                                                                 ",
"                                              P I < < < < < < U Y h F p < < < < < < < < < a s u     T R E E W Q                                                 ",
"                                              P I < < < < < < U Y h F p < < < < < < < < < a s u   ! ~ ^ / / ( ) Q                                               ",
"                                              X I < < < < < < U Y h F p < < < < < < < < < a s u ; 5 _ ` < < ' ] [ ;                                             ",
"                                              X I < < < < < < U Y h F p < < < < < < < < < a s { } |  .< < < ..X.o.O.                                            ",
"                                              X I < < < < < < U Y h F p < < < < < < < < < a s +.@.#.< < < < < < $.%.                                            ",
"                                              X I < < < < < < U Y h F p < < < < < < < < < a s +.&.*.< < < < < < $.=.                                            ",
"                                              X I < < < < < < U Y h F p < < < < < < < < < a s +.&.*.< < < < < < $.-.                                            ",
"                                              X I < < < < < < U Y h F p < < < < < < < < < a s +.&.*.< < < < < < $.;.                                            ",
"                                              X I < < < < < < U Y h F p < < < < < < < < < a s +.&.*.< < < < < < $.;.                                            ",
"                                              X I < < < < < < U Y h F p < < < < < < < < < a s +.&.*.< < < < < < $.;.                                            ",
"                                              X I < < < < < < U Y h F p < < < < < < < < < a s +.&.*.< < < < < < $.;.                                            ",
"                                              X I < < < < < < U Y h F p < < < < < < < < < a s +.&.*.< < < < < < $.;.                                            ",
"                                              X I < < < < < < U Y h F p < < < < < < < < < a s +.&.*.< < < < < < $.;.                                            ",
"                                              X I < < < < < < U Y :.>.p < < < < < < < < < a s +.&.*.< < < < < < $.;.                                            ",
"                                              X I < < < < < < U ,.<.1.p < < < < < < < < < a s +.&.*.< < < < < < $.;.                                            ",
"                                              X I < < < < < <  .2.3.4.p < < < < < < < < < a s +.&.*.< < < < < < $.;.                                            ",
"                                              5.6.< < < < < < < < < < < < < < < < < < < < a s +.&.*.< < < < < < $.;.                                            ",
"                                              7.8.9.0.< < < < < < < < < < < < < < < < < < a s +.&.*.< < < < < < $.;.                                            ",
"                                                q.w.e.r.< < < < < < < < < < < < < < < < < a s +.&.*.< < < < < < $.;.                                            ",
"                                                4 t.y.u.< < < < < < < < < < < < < < < < < a s +.&.*.< < < < < < $.;.                                            ",
"                                                    i.p.*.a.< < < < < < < < < < < < < < < a s +.&.*.< < < < < < $.;.                                            ",
"                                                      s.d.f.g.< < < < < < < < < < < < < < a s +.&.*.< < < < < < $.;.                                            ",
"                                                      4 h.b j.< < < < < < < < < < < < < < a k.l.z.*.< < < < < < $.;.                                            ",
"                                                        g x.c.v.b.n.m.M.< < < < < < < < < N.B.&.V.C.< < < < < < $.;.                                            ",
"                                                          c E =.=.=.Z.p < < < < < < < < < J A.S.D.J < < < < 9 F.G.H.                                            ",
"                                                                    J.p < < < < < < < < < < < < < < < < < < K.L.P.I.                                            ",
"                                                                    i p < < < < < < < < < < < < < < < < < U.Y.T.R.t.                                            ",
"                                                                    i p < < < < < < < < < < < < < < < < E.W.Q.@   t.                                            ",
"                                                                    i p < < < < < < < < < < < < < < < !.~.^.      I.                                            ",
"                                                                    i p < < < < < < < < < < < < < < /.(.)..       c                                             ",
"                                                                    i p < < < < < < < < < _.`.'.'.].[.{.T                                                       ",
"                                                                    i p < < < < < < < < < }.( |. X XF w                                                         ",
"                                                                    i p < < < < < < < < < a .Xw                                                                 ",
"                                                                    i p < < < < < < < < < a s u                                                                 ",
"                                                                    i p < < < < < < < < < a s u                                                                 ",
"                                                                    i p < < < < < < < < < a s u                                                                 ",
"                                                                    i p < < < < < < < < < a s u                                                                 ",
"                                                                    i p < < < < < < < < < a s u                                                                 ",
"                                                                    i p < < < < < < < < < a s u                                                                 ",
"                                                                    i p < < < < < < < < < a s u                                                                 ",
"                                                                    i p < < < < < < < < < a s u                                                                 ",
"                                                                    i p < < < < < < < < < a s u                                                                 ",
"                                                                    i p < < < < < < < < < a s u                                                                 ",
"                                                                    i p < < < < < < < < < a s u                                                                 ",
"                                                                    i p < < < < < < < < < a s u                                                                 ",
"                                                                    i p < < < < < < < < < a s u                                                                 ",
"                                                                    i p < < < < < < < < < a s u                                                                 ",
"                                                                    i p < < < < < < < < < a s u                                                                 ",
"                                                                    i p < < < < < < < < < a s u   :.XXoX                                                        ",
"                                                            Q ! c OX+Xp < < < < < < < < < a s Q @X#X$Xl..                                                       ",
"                                                            %X%.{ &XY *X< < < < < < < < < a s - =X-X;X:X>X                                                      ",
"                                                        @X,X<X1X2X3X4X5X< < < < < < < < < 6Xs 7X8X9X0XqXwX                                                      ",
"                                                        eXrXtXyXuXiXpXpXpXpXpXpXpXpXpXpXpXaXs u   O.sXu                                                         ",
"                                                        c u dXfXl.gXhXhXhXhXhXhXhXhXhXhX/ / &Xu c oXR.                                                          ",
"                                                            jXkXg : lXlXlXlXlXlX>X>X>X[ zXxXcXvXh                                                               ",
"                                                                                      t.bXnXmXMXNX                                                              ",
"                                                                                          %XBXw                                                                 ",
"                                                                                          I.+ c                                                                 ",
"                                                                                                                                                                ",
"                                                                                                                                                                ",
"                                                                                                                                                                ",
"                                                                                                                                                                ",
"                                                                                                                                                                ",
"                                                                                                                                                                ",
"                                                                                                                                                                "
};
