/* XPM */
static char *f3a60c7431464e44c82754cc31a5cf81AeDDSZ8EaJ4OpF5x[] = {
/* columns rows colors chars-per-pixel */
"80 80 195 2 ",
"   c black",
".  c black",
"X  c black",
"o  c black",
"O  c black",
"+  c black",
"@  c black",
"#  c black",
"$  c black",
"%  c black",
"&  c black",
"*  c black",
"=  c black",
"-  c black",
";  c black",
":  c black",
">  c black",
",  c black",
"<  c black",
"1  c black",
"2  c black",
"3  c black",
"4  c black",
"5  c black",
"6  c black",
"7  c black",
"8  c black",
"9  c black",
"0  c black",
"q  c black",
"w  c black",
"e  c black",
"r  c gray23",
"t  c #4E4E4E",
"y  c gray30",
"u  c gray33",
"i  c #151515",
"p  c black",
"a  c black",
"s  c gray8",
"d  c #DFDFDF",
"f  c white",
"g  c #7B7B7B",
"h  c #161616",
"j  c #E2E2E2",
"k  c gainsboro",
"l  c #686868",
"z  c #6C6C6C",
"x  c gray51",
"c  c gray50",
"v  c gray66",
"b  c gray5",
"n  c #AAAAAA",
"m  c #0E0E0E",
"M  c #CECECE",
"N  c #414141",
"B  c #434343",
"V  c #5B5B5B",
"C  c #FBFBFB",
"Z  c gray99",
"A  c #040404",
"S  c #646464",
"D  c #7E7E7E",
"F  c #2F2F2F",
"G  c black",
"H  c black",
"J  c black",
"K  c black",
"L  c black",
"P  c black",
"I  c black",
"U  c black",
"Y  c black",
"T  c black",
"R  c black",
"E  c black",
"W  c black",
"Q  c black",
"!  c black",
"~  c black",
"^  c black",
"/  c black",
"(  c black",
")  c black",
"_  c black",
"`  c black",
"'  c black",
"]  c black",
"[  c black",
"{  c black",
"}  c black",
"|  c black",
" . c black",
".. c black",
"X. c black",
"o. c black",
"O. c black",
"+. c black",
"@. c black",
"#. c black",
"$. c black",
"%. c black",
"&. c black",
"*. c black",
"=. c black",
"-. c black",
";. c black",
":. c black",
">. c black",
",. c black",
"<. c black",
"1. c black",
"2. c black",
"3. c black",
"4. c black",
"5. c black",
"6. c black",
"7. c black",
"8. c black",
"9. c black",
"0. c black",
"q. c None",
"w. c black",
"e. c black",
"r. c black",
"t. c black",
"y. c black",
"u. c black",
"i. c black",
"p. c black",
"a. c black",
"s. c black",
"d. c black",
"f. c black",
"g. c black",
"h. c black",
"j. c black",
"k. c black",
"l. c black",
"z. c black",
"x. c black",
"c. c black",
"v. c black",
"b. c black",
"n. c black",
"m. c black",
"M. c black",
"N. c black",
"B. c black",
"V. c black",
"C. c black",
"Z. c black",
"A. c black",
"S. c black",
"D. c black",
"F. c black",
"G. c black",
"H. c black",
"J. c black",
"K. c black",
"L. c black",
"P. c black",
"I. c black",
"U. c black",
"Y. c black",
"T. c black",
"R. c black",
"E. c black",
"W. c black",
"Q. c black",
"!. c black",
"~. c black",
"^. c black",
"/. c black",
"(. c black",
"). c black",
"_. c black",
"`. c black",
"'. c black",
"]. c black",
"[. c black",
"{. c black",
"}. c black",
"|. c black",
" X c black",
".X c black",
"XX c black",
"oX c black",
"OX c black",
"+X c black",
"@X c black",
"#X c black",
"$X c black",
"%X c black",
"&X c black",
/* pixels */
"                                                                                                                                                                ",
"                                                                                                                                                                ",
"                                                                                                                                                                ",
"                                                                                            . X o o o o o o o o o o o o o o o o o o o o o o o O + @             ",
"                                                                                            # $ % % % % % % % % % % % % % % % % % % % % % % % % & *             ",
"                                                                                            = - - - - - - - - - - - - - - - - - - - - - - - - - ; *             ",
"                                                                                      : > , < - - - - - - - - - - - - - - - - - - - - - - - - - 1 2 3 3 4       ",
"                                                                                      5 6 7 8 - - - - - - - - - - - - - - - - - - - - - - - - - 9 7 0 q w       ",
"                                                                                      e - - - - - - r t y y y u i - - - - - - - - - - - - - - - - - - p a       ",
"                                                                                      e - - - - - s d f f f f f g - - - - - - - - - - - - - - - - - - p a       ",
"                                                                                      e - - - - - h j k l z x f c - - - - - - - - - - - - - - - - - - p a       ",
"                                                                                      e - - - - - h j v - - b f c - - - - - - - - - - - - - - - - - - p a       ",
"                                                                                      e - - - - - h j n - - m f c - - - - - - - - - - - - - - - - - - p a       ",
"                                                                                      e - - - - - h j M N B V f c - - - - - - - - - - - - - - - - - - p a       ",
"                                                                                      e - - - - - h j f C Z Z f c - - - - - - - - - - - - - - - - - - p a       ",
"                                                                                      e - - - - - A S D D D D x F - - - - - - - - - - - - - - - - - - p a       ",
"                                                                                      e - - - - - - - - - - - - - - - - - - - - - - - - - - - - - - - p a       ",
"                                                                                      e - - - - - - - - - - - - - - - - - - - - - - - - - - - - - - - p a       ",
"                                                                                      e - - - - - - - - - - - - - - - - - - - - - - - - - - - - - - - p a       ",
"                                                                                      e - - - - - - - - - - - - - - - - - - - - - - - - - - - - - - - p a       ",
"                                                                                      e - - - - - - - - - - - - - - - - - - - - - - - - - - - - - - - p a       ",
"                                                                                      e - - - - - - - - - - - - - - - - - - - - - - - - - - - - - - - p a       ",
"                                                                                      e - - - - - - - - - - - - - - - - - - - - - - - - - - - - - - - p a       ",
"                                                                                      e - - - - - - - - - - - - - - - - - - - - - - - - - - - - - - - p a       ",
"                                                                                      e - - - - - - - - - - - - - - - - - - - - - - - - - - - - - - - p a       ",
"                                                                                      e - - - - - - - - - - - - - - - - - - - - - - - - - G H J J J J K L       ",
"                                                                                      e - - - - - - - - - - - - - - - - - - - - - - - - - H @ P P P P P         ",
"                                                                                      e - - - - - - - - - - - - - - - - - - - - - - - - - H P                   ",
"                    I U Y T R                                                   E T W H - - - - - - - - - - - - Q ! ~ ~ ~ ~ ~ ~ ~ ~ ~ ~ ^ / P                   ",
"                    3 q ( ( <                                                   ) _ ` ' - - - - - - - - - - - - ] , [ [ [ [ [ [ [ [ [ [ 2 {                     ",
"                    2 } - $ o                                                   | - - - - - - - - - - - - - - - K                                               ",
"                    2 } - $ o                                         @ 4 4 4 P  .- - - - - - - - - - - - - - - K                                               ",
"                    2 } - $ o                                       P ..X.o.o.O.Q - - - - - - - - - - - - - - - K                                               ",
"                    2 } - $ o                                       P +.- - - - - - - - - - - - - - - - - - - - K                                               ",
"                    2 } - $ o                                       P +.- - - - - - - - - - - - - - - - - - - - K                                               ",
"                    2 } - @.#.$.%.&.                        Y *.=.=.-.;.- - - - - - - - - - - - - - - - - - - - :.>.=.=.=.,.o :                                 ",
"                    2 } - - $ % <.1.                        2.<.% % % @.- - - - - - - - - - - - - - - - - - - - @.% % % % % 3.4.                                ",
"                    2 } - - - - - K                         5.- - - - - - - - - - - - - - - - - - - - - - - - - - - - - - - Q a                                 ",
"                    2 } - - - - - 6., [ 7.P         P . [ , 8.- - - - - - - - - - - - - - - - - - - - - - - - - 9.` ( 0.q.- Q a                                 ",
"                    2 } - - - - - w.7 e.r.t.        y.u.e.7 i.- - - - - - - - - - - - - - - - - - - - - - - - - p.E a a.s.- Q a                                 ",
"                    2 } - - - - - - - - d.f.        * O.- - - - - - - - - - - - - - - - - - - - - - - - - - - - K     g.h.- Q a                                 ",
"                    2 } - - - - - - - - ; R j.j.j.j.k.;.- - - - - - - - - - - - - - - - - - - - - - - - - - - - K     l.9.% 3.4.                                ",
"                    2 } - - - - - - - - ( z.] ] ] ] x.6 - - - - - - - - - - - - - - - - - - - - - - - - - - - - K     c.v.b.n.{                                 ",
"                    2 } - - - - - - - - - - - - - - - - - - - - - - - - - - - - - - - - - - - - - - - - - - - - K                                               ",
"                    2 } - - - - - - - - - - - - - - - - - - - - - - - - - - - - - - - - - - - - - - - - - - - - K                                               ",
"                    2 } - - - - - - - - - - - - - - - - - - - - - - - - - - - - - - - - - - - - - - - - - - - - K                                               ",
"                    2 } - - - - - - - - - - - - - - - - - - - - - - - - - - - - - - - - - - - - - - - - - - - - K                                               ",
"                    2 } - - - - - - - - - - - - - - - - - - - - - - - - - - - - - - - - - - - - - - - - - - - - K                                               ",
"                    > m.M.' % - - - - - - - - - - - - - - - - - - - - - - - - - - - - - - - - - - - - - - - - - K                                               ",
"                    j.N.B.V.X.- - - - - - - - - - - - - - - - - - - - - - - - - - - - - - - - - - - - - - - - - K                                               ",
"                          I ) - - - - - - - - - - - - - - - - - - - - - - - - - - - - - - - - - - - - - q.C.Z.G A.                                              ",
"                          I ) - q.- - - - - - - - - - - - - - - - - - - - - - - - - - - - - - - - - - - @.O t.f.j.                                              ",
"                          @ ,.8.S.| - - - - - - - - - - - - - - - - - - - - - - - - - - - - - - - - - - <.>.                                                    ",
"                            P P P D.- - - - - - - - - - - - - - - - - - - - - - - - - - - - - - - - - - <.>.                                                    ",
"                                  F.- - - - - - - - - - - - - - - - - - - - - - - - - - - - - - - - - - <.>.                                                    ",
"                                  G.H.C.^ @.- - - - - - - - - - - - - - - - - - - - - - - - - - - % H.C.~ J.                                                    ",
"                                  y.{ K.L.9 - - - - - - - - - - - - - - - - - - - - - - - - - - - P.&.K.{ I                                                     ",
"                                        I.9 - - - - - - - - - - - - - - - - - - - - - - - - - - - 8 U                                                           ",
"                                        # p U.U.q.- - - - - - - - - - - - - - - - - - - - - @.Y.U.7 W                                                           ",
"                                        L T.L.R.w.- - - - - - - - - - - - - - - - - - - - - C.E.L.E.k.                                                          ",
"                                              W._ - - - - - - - - - - - - - - - - - - - - - Q.                                                                  ",
"                                              W._ - - - - - - - - - - - - - - - - - - - - - Q.                                                                  ",
"                                              : !.~.^.8 - - - - - - - - /.(.)._.( - - - - - Q.                                                                  ",
"                                                    * O.- - - - - - - - ' W     | - - - - - Q.                                                                  ",
"                                                    * O.- - - - - - - - ' W     | - - - - - Q.                                                                  ",
"                                                    * O.- - - - - 9.`.`.'.].    [.! C.3.- - Q.                                                                  ",
"                                                    * O.- - - - - d.{.4.}.I     3 4.w 1.- - Q.                                                                  ",
"                                                    * O.- - - - - |.f.                e - - Q.                                                                  ",
"                                                    * O.- - @.$ <.;.t.                e - - Q.                                                                  ",
"                                                    * O.- -  X$.%.+ 4                 e - - Q.                                                                  ",
"                                                    * O.- - .X                        e - - Q.                                                                  ",
"                                                    * O.- - .X                        e - - Q.                                                                  ",
"                                                    * O.- - XXoX=.E.4                 e - - ! >.o oXK.                                                          ",
"                                                    * O.- - @.% $ ;.t.                e - - q.% % OXU                                                           ",
"                                                    * O.- - - - - |.f.                e - - - - - 8 U                                                           ",
"                                                    y.+XQ 0.0.0.i.@Xt.                #Xp 0.0.0.0.$Xa                                                           ",
"                                                    P 2 %X&X&X&X%Xw P                 L Y &X&X&X&XW j.                                                          ",
"                                                                                                                                                                ",
"                                                                                                                                                                ",
"                                                                                                                                                                "
};
